<?xml version="1.0" encoding="utf-8"?>
<!DOCTYPE svg PUBLIC "-//W3C//DTD SVG 1.0//EN" "http://www.w3.org/TR/2001/REC-SVG-20010904/DTD/svg10.dtd">
<!-- Viewbox has been shifted to eliminate transparent edges. You can see this in the discrepancy between it and width/height. -->
<svg version="1.0" xmlns="http://www.w3.org/2000/svg" width="2000px" height="2000px" viewBox="217 211 1566 1578"
    preserveAspectRatio="xMidYMid meet">
    <g fill="#848484">
        <path
            d="M 326.7 1788.3 c -1.5 -1.5 -0.5 -6.7 2.4 -12.6 1.7 -3.4 9.8 -17.7 17.9 -31.7 17.1 -29.5 19.2 -33.7 21.3 -40.6 2.2 -7.4 4.1 -10.7 7.9 -13.6 4.4 -3.3 87.8 -51.5 94.5 -54.5 9.9 -4.6 13 -2.1 9.8 7.8 -2.6 7.8 -2.3 11.8 1.3 15 3.1 2.8 5.5 3.7 23.9 8.9 11.4 3.3 16.3 6.2 16.3 9.6 0 3.4 -8.2 9.2 -34.5 24.3 -25.7 14.8 -32.8 18.1 -38.4 18.1 -6.9 0 -10.5 2.1 -19.6 11.5 -9 9.2 -9 9.2 -50 32.7 -22.5 12.9 -42.3 23.9 -43.8 24.6 -3 1.3 -8 1.6 -9 0.5 z " />
        <path
            d="M 1657.5 1784.2 c -9.2 -4.9 -70.6 -40.3 -77.5 -44.7 -2.1 -1.3 -6.6 -5.6 -10.1 -9.5 -7.6 -8.5 -9.6 -9.7 -18.6 -11 -3.8 -0.5 -8.5 -1.6 -10.5 -2.4 -4.7 -2 -53.3 -30.1 -57.6 -33.3 -4 -3 -5.3 -6 -3.9 -9 1.3 -3 4.8 -4.5 20.5 -8.9 14.2 -3.9 18.9 -6.3 21 -10.7 1.2 -2.4 1.1 -3.7 -0.8 -10.1 -2.7 -9.1 -2.5 -11 1.6 -11.4 4.1 -0.4 10.6 3 60.4 31.8 24.2 14 41.9 24.8 44 27 2.5 2.5 4.1 5.6 5.3 9.9 2.3 8.1 4 11.5 21.7 42.1 18.6 32.2 21.2 37.3 20.8 41.3 -0.3 2.9 -0.7 3.2 -3.8 3.5 -2.6 0.1 -5.8 -1 -12.5 -4.6 z " />
        <path
            d="M 726.3 1749.1 c -8 -3.7 -10.8 -13 -5.8 -19 1.5 -1.7 4.6 -3.7 7.5 -4.6 6 -2 6.1 -2.8 1.9 -11 -2.5 -4.8 -3 -6.8 -2.5 -10.1 0.6 -5 13 -39.6 15.8 -44.2 2.1 -3.5 6.4 -6.2 9.7 -6.2 3.8 0 13 4.1 15.1 6.7 5.2 6.7 4.7 11.5 -4.3 35.9 -6.4 17.5 -8.8 22.5 -13.2 27.7 -2.7 3.2 -3.3 4.8 -3.8 10.3 -1 12.6 -10.3 19.2 -20.4 14.5 z " />
        <path
            d="M 1263.6 1750 c -6.5 -2 -10.6 -8.7 -10.6 -17.6 0 -3.1 -0.7 -4.9 -3.4 -8 -1.8 -2.1 -4.3 -5.9 -5.6 -8.3 -2.9 -5.8 -12.9 -33.1 -14.5 -39.8 -2.3 -9.1 0.4 -15.6 7.9 -19.2 9.2 -4.5 15.4 -3.5 19.4 3.1 2.8 4.6 15.2 39.2 15.8 44.2 0.5 3.3 0 5.3 -2.5 10.1 -4.2 8.2 -4.1 9 1.9 11 2.9 0.9 6 2.9 7.5 4.6 5 6 2.2 15.3 -5.8 18.9 -4.6 2.1 -5.8 2.2 -10.1 1 z " />
        <path
            d="M 993 1659.2 c -2 -1.1 -4.6 -3.8 -6 -6.3 -2.5 -4.4 -2.5 -4.4 -2.8 -96.4 -0.2 -65.9 0 -93.5 0.8 -97.3 3.9 -17.9 26.1 -17.9 30 0 0.8 3.8 1 31.4 0.8 97.3 -0.3 92 -0.3 92 -2.8 96.4 -2.9 5 -7.8 8.1 -13 8.1 -1.9 0 -5.1 -0.8 -7 -1.8 z " />
        <path
            d="M 765 1645.3 c -11.5 -11.9 -11.6 -15.2 -1.5 -42.8 10.7 -29.3 12 -31.4 18.7 -30.1 5.7 1.1 15 10.9 16.8 17.7 1.3 4.9 0.8 7 -8.2 31.9 -7.3 20.4 -9.6 25 -13.1 27.5 -4 2.8 -6.7 1.9 -12.7 -4.2 z " />
        <path
            d="M 1221.6 1648.9 c -3.5 -2.8 -4.2 -4.3 -12.4 -26.9 -9 -24.9 -9.5 -27 -8.2 -31.9 1.9 -7.1 12.9 -18.1 18.2 -18.1 5.7 0 7.1 2.5 17.3 30.5 10.1 27.6 10 30.9 -1.2 42.5 -6.5 6.7 -9.2 7.4 -13.7 3.9 z " />
        <path
            d="M 587.5 1632.6 c -11.1 -5.2 -42.2 -23.9 -45.3 -27.2 -2.7 -2.9 -3.2 -4.1 -2.7 -6.2 1 -4.2 3.9 -6.4 22.5 -17.3 29.1 -16.8 31.6 -17.8 39 -15.6 6.5 2 46.4 25.2 49.5 28.8 3.3 4 3.2 7.1 -0.3 10.6 -3.1 3 -35.8 22.4 -45.2 26.7 -6.8 3.2 -11.1 3.2 -17.5 0.2 z " />
        <path
            d="M 1395.3 1632.5 c -5.4 -2.4 -35.9 -19.9 -42.5 -24.2 -7 -4.7 -7.3 -10.6 -0.6 -15.6 6.5 -4.9 42.4 -25.1 47.1 -26.5 6.8 -2 10.6 -0.5 35.4 13.8 20.7 12 26.3 16.2 26.3 20 0 3.8 -6.5 8.9 -25 19.6 -29.2 16.9 -31 17.5 -40.7 12.9 z " />
        <path
            d="M 695.5 1573.1 c -2.5 -1.1 -10.4 -8.3 -20.7 -18.8 -16.4 -16.7 -16.8 -17.1 -16.8 -21.3 0 -5.6 3 -8.4 19.1 -17.5 11.7 -6.7 18.3 -11.9 22.2 -17.8 3.8 -5.7 8.7 -2.8 29 17.2 23.7 23.2 26.1 27.4 20 34 -2.8 3.1 -27.7 17.9 -38.8 23.2 -7 3.4 -8.6 3.5 -14 1 z " />
        <path
            d="M 1287.8 1570.7 c -13.3 -6.9 -33.1 -18.8 -36 -21.8 -2 -2 -2.8 -3.8 -2.8 -6.3 0 -4.6 4.9 -10.5 24.7 -29.7 13.9 -13.5 19.8 -17.9 23.6 -17.9 0.9 0 3.5 2.5 5.9 5.7 3.5 4.5 6.5 6.9 15.8 12.4 18.1 10.7 21 12.8 22.4 16 2.4 5.6 1.1 7.6 -16.3 25.3 -16.1 16.4 -21.5 20.5 -26.8 20.6 -1.2 0 -5.9 -1.9 -10.5 -4.3 z " />
        <path
            d="M 406.9 1528 c -5.4 -2.9 -12.5 -11.3 -14.5 -17.3 -2.3 -6.7 -2.3 -14.8 0.1 -21.7 1.4 -4.2 3.3 -7 8.4 -12 5.8 -5.7 12.5 -9.8 54.6 -34 57.2 -32.8 58.8 -33.8 60.4 -37.8 1.8 -4.3 0.9 -7.1 -4.1 -13.2 -10.3 -12.3 -11.9 -14.8 -13.4 -19.7 -2.8 -9.6 0.4 -15.3 17.7 -31.8 5.2 -4.9 11.7 -10.2 14.4 -11.7 2.8 -1.5 16.9 -5.9 31.7 -9.9 17.4 -4.7 28.5 -8.2 31.8 -10.1 6.1 -3.4 7.8 -6 27.5 -40.3 17 -29.6 20.4 -34.5 26.9 -38.9 8.2 -5.6 13.9 -6.6 38.6 -6.6 11.8 0 23.3 0.5 25.5 1 3.1 0.7 5.5 2.5 10.5 7.8 7 7.4 13 11.2 18 11.2 5.1 0 8.3 -4.1 11.8 -15.5 1.7 -5.5 4.5 -12 6.1 -14.5 1.6 -2.5 13.3 -14.7 25.8 -27.2 27.1 -26.9 29.3 -28.3 43.3 -28.3 7.5 0.1 12.4 1.1 42.9 9.4 43.7 11.8 41.7 11.8 61.6 0.8 15.8 -8.7 20.7 -9.8 22.5 -5.2 0.6 1.7 0.6 4.1 0 6.9 -1 4.3 -37.6 105.6 -41.1 113.6 -2.3 5.2 -5.9 9.2 -10.9 12.3 -1.9 1.2 -5.7 3.8 -8.3 5.9 -5.8 4.5 -9.4 4.9 -13 1.2 -3.1 -3.1 -4.1 -7.1 -3.2 -13 0.3 -2.5 6 -19.3 12.6 -37.5 9.9 -27.3 12 -33.9 11.7 -37.6 -0.4 -5.9 -3 -8 -11.8 -9.4 -3.6 -0.5 -15.8 -3.4 -27.1 -6.4 -11.4 -3 -22.1 -5.5 -23.8 -5.5 -4.7 0 -8.8 2.6 -11 6.8 -1.1 2.1 -6.1 19.3 -11.1 38.2 -10.9 40.7 -11 42 -3.8 48.5 2.5 2.2 20.6 13.2 40.2 24.5 19.6 11.3 37.7 22.1 40.3 24 2.6 2 5.7 5.5 7 8 3.1 6 25.3 89.2 25.3 94.7 0 5.8 -2.1 9.6 -7.3 13.1 -7.6 5.2 -35.3 20.9 -38.9 22.1 -4.7 1.5 -8.3 0.6 -10.8 -2.9 -2 -2.8 -6.6 -18 -11.6 -37.8 -3.3 -13 -2.9 -15.6 3.6 -22.7 8.4 -9.3 7.8 -12.2 -4.5 -20.8 -13.1 -9 -13.3 -9.4 -21 -38.2 -3.1 -11.5 -6.6 -22.7 -7.7 -24.7 -2.8 -5 -7.6 -7.2 -13.7 -6.3 -19.8 3 -49.1 17.5 -52.7 26.1 -2 4.7 -0.9 8.1 6.5 21.3 6.7 12 8.6 17.7 7.7 23.6 -0.4 2.2 -3.8 15.9 -7.7 30.5 -8 30 -9 35.8 -6.4 38.3 3.6 3.6 8.9 1.8 29 -9.7 12.6 -7.3 17.1 -7.8 22.4 -2.5 2.6 2.5 16.7 26.1 22 36.6 3.8 7.6 2.5 13.3 -4.3 18 -7.5 5.3 -36 21.1 -39.3 21.8 -5.8 1.2 -9.7 -1.7 -15.6 -11.4 -9.3 -15 -19.5 -33.4 -21.7 -39 -1.1 -2.9 -4.2 -8.2 -6.8 -11.7 -7.8 -10.5 -35.9 -60 -37.2 -65.5 -1.5 -6.2 -1.5 -6.5 7.6 -40.5 4.4 -16.7 7.4 -30.1 7.4 -33 0 -9.3 -1.6 -10.7 -30.5 -27.3 -25.9 -14.8 -25.7 -14.8 -45.3 4.2 -18 17.6 -21.2 21.7 -21.2 27.1 0 2.3 0.7 5.3 1.7 6.6 0.9 1.4 11.4 12.4 23.4 24.5 13.6 13.8 22 23.1 22.4 24.8 1.2 4.5 -0.3 7.4 -6.2 12.4 -12.8 10.7 -23.9 22.2 -26.8 28 -3.4 6.5 -5.4 7.4 -10.7 4.7 -1.8 -0.9 -13.2 -11.4 -25.3 -23.4 -12.1 -11.9 -23.1 -22.5 -24.5 -23.4 -1.3 -0.9 -4.3 -1.6 -6.6 -1.6 -3.4 0 -5.2 0.8 -9.1 3.9 -2.6 2.1 -36.1 35.3 -74.3 73.6 -38.6 38.7 -71.1 70.5 -73.2 71.6 -4.6 2.4 -8.3 2.4 -12.9 -0.1 z " />
        <path
            d="M 1580.5 1528.4 c -1.6 -0.9 -35.4 -33.9 -75 -73.4 -39.6 -39.4 -73.3 -72.7 -74.9 -73.9 -3.5 -2.6 -10.1 -2.8 -13.6 -0.5 -1.4 0.9 -12.4 11.5 -24.5 23.4 -12.1 12 -23.5 22.5 -25.3 23.4 -5.3 2.7 -7.3 1.8 -10.5 -4.5 -2.8 -5.6 -14.1 -17.4 -27 -28.2 -5.9 -5 -7.4 -7.9 -6.2 -12.4 0.4 -1.7 8.8 -11 22.4 -24.8 12 -12.1 22.5 -23.1 23.4 -24.5 1 -1.3 1.7 -4.3 1.7 -6.6 0 -5.4 -3.2 -9.4 -20.8 -26.7 -14.1 -13.8 -18.1 -16.2 -24.3 -15.2 -3.7 0.6 -38.6 19.9 -45.7 25.2 -4.3 3.2 -6.2 7.2 -6.2 12.9 0 2.6 3.3 17 7.4 32.8 9 34 9.1 34.3 7.6 40.5 -1.3 5.5 -29 54.2 -37.1 65.4 -2.7 3.7 -6 9.4 -7.3 12.8 -2.5 6 -15.4 29 -22.8 40.6 -4.5 7.1 -9 9.8 -14.1 8.8 -5.1 -1.1 -37.8 -20.2 -41.9 -24.5 -6.4 -6.6 -5.8 -9 9 -34.5 9.5 -16.4 10.8 -18.1 14.8 -20 4.5 -2.1 8.2 -1 19.9 5.6 20.4 11.5 24.5 12.8 28 8.9 2.6 -2.9 1.8 -7.5 -6.6 -38.7 -9.1 -33.3 -9.2 -35.7 -3.1 -46.9 10.4 -19.3 11.6 -22.2 10.4 -26.3 -1.5 -4.8 -4.8 -7.8 -15.7 -14 -10.4 -6 -16.2 -8.2 -29.3 -11.6 -11.1 -2.9 -12.3 -3 -16.6 -1 -4.9 2.3 -6.9 7 -13.1 30 -7.7 28.8 -7.9 29.2 -21 38.2 -8.2 5.7 -11 9.2 -10.2 12.5 0.4 1.3 2.9 5 5.6 8.1 7.7 8.7 7.6 9.3 -0.9 40.2 -5 18 -6.4 21.1 -10.3 23.2 -4.3 2.2 -7.3 1.1 -26.2 -9.8 -25.9 -14.8 -27.5 -16.3 -27.5 -25.2 0 -5.5 22.2 -88.7 25.3 -94.7 1.3 -2.5 4.4 -6 7 -8 2.5 -1.9 20.7 -12.7 40.4 -24 20.1 -11.5 37.7 -22.3 40.2 -24.6 7.1 -6.6 7 -7.8 -3.9 -48.4 -5 -18.9 -10 -36.1 -11.1 -38.2 -2.2 -4.2 -6.3 -6.8 -11 -6.8 -1.7 0 -12.4 2.5 -23.8 5.5 -11.3 3 -23.5 5.9 -27.1 6.4 -8.8 1.4 -11.4 3.5 -11.8 9.4 -0.3 3.7 1.8 10.3 11.7 37.6 6.6 18.2 12.3 35 12.6 37.5 0.9 5.9 -0.1 9.9 -3.2 13 -3.6 3.7 -7.2 3.3 -13 -1.2 -2.6 -2.1 -6.4 -4.7 -8.3 -5.9 -5 -3.1 -8.6 -7.1 -10.9 -12.3 -3.5 -8 -40.1 -109.3 -41.1 -113.6 -0.6 -2.8 -0.6 -5.2 0 -6.9 1.8 -4.6 6.7 -3.5 22.5 5.2 19.9 11 17.9 11 61.6 -0.8 30.4 -8.2 35.4 -9.3 42.9 -9.4 14 0 16.2 1.4 43.3 28.3 12.5 12.5 24.2 24.7 25.8 27.2 1.6 2.5 4.4 9 6.1 14.5 3.5 11.4 6.7 15.5 11.8 15.5 5 0 11 -3.8 18 -11.2 5 -5.3 7.4 -7.1 10.5 -7.8 2.2 -0.5 13.7 -1 25.5 -1 24.7 0 30.4 1 38.6 6.6 6.6 4.4 9.7 9.1 28.4 41.4 8.4 14.6 16.6 28.5 18.4 30.9 4.9 6.8 10.4 9.2 39.4 17 14.4 3.9 28.6 8.3 31.5 9.7 6 3.1 28.4 24.8 31.3 30.4 4.2 8.2 1.4 17.2 -8.8 28.6 -9.8 11.2 -10.8 15.3 -4.9 21.1 1.5 1.5 25.9 16.1 54.2 32.3 45.3 26 52.1 30.3 58 36 5.1 5 7 7.8 8.4 12 3.9 11.5 1.6 23.3 -6.2 32 -7.5 8.3 -14.3 10.7 -20.8 7.4 z " />
        <path
            d="M 993 1359.2 c -2 -1.1 -4.6 -3.8 -6 -6.3 -2.5 -4.4 -2.5 -4.4 -2.8 -105.2 -0.2 -97.8 -0.2 -101 1.7 -105.2 2.4 -5.5 6.7 -7.9 14.1 -7.9 7.4 0 11.7 2.4 14.1 7.9 1.9 4.2 1.9 7.4 1.7 105.2 -0.3 100.8 -0.3 100.8 -2.8 105.2 -2.9 5 -7.8 8.1 -13 8.1 -1.9 0 -5.1 -0.8 -7 -1.8 z " />
        <path
            d="M 220.1 1294.4 c -4.5 -5.7 -3.6 -20.1 1.6 -25.7 4.1 -4.3 -0.9 -2.4 94 -36.8 17.7 -6.4 22.5 -7.1 26.6 -3.9 3.3 2.7 6.1 10 6.2 16.6 0 5.8 -2.2 9.1 -8 12.2 -8.4 4.3 -38.5 14.4 -46 15.3 -6.4 0.8 -9 1.7 -13 4.3 -7.6 5 -9.5 5.8 -30.7 13.5 -22.5 8.1 -27.3 8.8 -30.7 4.5 z " />
        <path
            d="M 1748.2 1289.6 c -11.1 -4.1 -22.3 -8.7 -24.8 -10.3 -2.5 -1.5 -5.8 -3.6 -7.3 -4.5 -1.4 -0.9 -6.2 -2.1 -10.7 -2.7 -5.6 -0.7 -13.4 -3 -25.7 -7.5 -20.2 -7.5 -22.3 -8.4 -25.7 -12.1 -2 -2.2 -2.5 -3.7 -2.5 -7.9 0.1 -6.6 2.9 -13.9 6.2 -16.6 1.6 -1.2 4.1 -2 6.5 -2 4.1 0 102.8 35.2 110.1 39.3 6.1 3.4 8.2 7.7 8.2 17.4 0 6.7 -0.4 8.6 -2.1 11 -3.8 5.1 -8.7 4.4 -32.2 -4.1 z " />
        <path
            d="M 423.9 1219.2 c -5.6 -3.6 -11.6 -10.5 -12.4 -14.4 -0.8 -3.6 1.3 -7.1 5.6 -9.4 5.7 -2.9 44.1 -16.5 48.4 -17.1 7.6 -1 14.6 2.7 20.6 11.1 3.5 4.8 3.8 9.7 0.8 12.7 -2.8 2.8 -7.2 4.7 -30.4 12.9 -22.4 8 -25.8 8.5 -32.6 4.2 z " />
        <path
            d="M 1540.5 1213.9 c -21.7 -7.8 -25.8 -9.8 -28.2 -12.8 -2.1 -2.7 -1.5 -7.6 1.6 -11.7 6 -8.4 13 -12.1 20.7 -11 4.6 0.6 41.3 13.5 47.6 16.7 8.2 4.2 8.5 9.6 1.2 17.8 -5.2 5.8 -11.4 9.1 -17 9.1 -2.3 -0.1 -12.8 -3.3 -25.9 -8.1 z " />
        <path
            d="M 511.8 1188.5 c -6.7 -2.5 -17.9 -9.6 -19 -12.1 -1.7 -3.7 0.1 -7.5 4.7 -10 2.2 -1.2 15.5 -6.4 29.5 -11.5 34.3 -12.4 36.7 -12.6 52.3 -2.6 9.6 6.2 11.1 11.5 4.3 15.6 -1.9 1.2 -15.8 6.6 -30.9 12.1 -29.3 10.6 -33 11.4 -40.9 8.5 z " />
        <path
            d="M 1473.5 1189.3 c -2.9 -0.7 -47.9 -17.1 -53.1 -19.3 -5.3 -2.3 -8.4 -5.3 -8.4 -8.2 0 -3.1 6.5 -8.8 15.2 -13.2 11.3 -5.7 14.5 -5.3 47.1 6.7 28.5 10.6 31.8 12.1 33.1 16 1.5 4.2 -0.6 7.1 -8.3 11.7 -11.1 6.4 -18 8.1 -25.6 6.3 z " />
        <path
            d="M 646.5 1140.4 c -26.3 -6.8 -32.1 -9.7 -29.7 -14.9 1.6 -3.6 5.9 -5.4 48.1 -20.7 46.9 -17 44.9 -16.8 72.1 -8.2 8.6 2.7 11.5 5.1 10.6 8.7 -0.9 3.7 -6.9 6.4 -47.6 21.2 -32.1 11.7 -38.5 13.7 -44.5 14 -3.8 0.2 -7.9 0.2 -9 -0.1 z " />
        <path
            d="M 1338 1139.8 c -6 -1.6 -75.3 -27 -79 -28.8 -12.5 -6.3 -7.9 -11.7 14.9 -17.5 17.6 -4.6 19 -4.3 62.7 11.7 46.6 17.1 48.3 18 47 23.2 -0.8 3.2 -6.5 5.8 -21.1 9.6 -12 3.1 -18.3 3.6 -24.5 1.8 z " />
        <path
            d="M 796.5 1087.9 c -1.1 -0.7 -2.3 -1.7 -2.7 -2.3 -2.1 -3.1 0.7 -17.2 4.8 -24.4 3.3 -5.6 9.1 -8.8 26.8 -14.7 16.2 -5.5 21 -5.6 26.7 -0.7 6 5 7.4 11.8 3.7 18.3 -3.3 5.9 -7.6 8.3 -29.8 16.4 -21.9 8.1 -26.4 9.2 -29.5 7.4 z " />
        <path
            d="M 1194 1087.6 c -10.1 -2.9 -38.8 -14 -43.1 -16.7 -4.9 -3.1 -8.9 -9.1 -8.9 -13.3 0 -7.3 6 -14 13.7 -15.2 4 -0.6 6.7 0 18.9 4.1 23.1 7.7 27.2 11.1 30.8 25.1 2.4 9.2 2.1 12.8 -1 15.3 -3 2.4 -4.1 2.5 -10.4 0.7 z " />
        <path
            d="M1065.4 1000 C 1065.4 1036.2 1036.1 1065.4 1000 1065.4 963.9 1065.4 934.6 1036.2 934.6 1000 934.6 963.9 963.9 934.6 1000 934.6 1036.1 934.6 1065.4 963.9 1065.4 1000 Z M990.7 1064.9 " />
        <path
            d="M 497.7 1014.8 c -5 -1.3 -10.2 -6.4 -11.5 -11.1 -2.2 -7.9 3.3 -16.3 12.2 -18.6 6.1 -1.5 331.3 -1.6 336.9 0 8.7 2.4 14.2 11 11.8 18.8 -1.4 4.7 -6.6 9.6 -11.8 11 -5.1 1.5 -332.2 1.3 -337.6 -0.1 z " />
        <path
            d="M 1163.6 1014.5 c -8.4 -3 -13 -10.9 -10.7 -18.4 1.4 -4.7 6.6 -9.6 11.8 -11 5.6 -1.6 330.8 -1.5 336.9 0 8.9 2.3 14.4 10.7 12.2 18.6 -1.4 5 -6.6 9.8 -12.2 11.2 -3.3 0.8 -49.3 1.1 -169.3 1.1 -137.3 -0.1 -165.4 -0.3 -168.7 -1.5 z " />
        <path
            d="M 824.3 953.2 c -17.3 -6 -22.5 -8.9 -25.7 -14.5 -4.1 -7.1 -6.9 -21.2 -4.8 -24.3 1.5 -2.2 5.4 -3.6 8.7 -3 6.1 1.2 43.8 15.5 47.5 18.1 9.9 6.9 10.3 18.7 0.9 25.7 -5.1 3.8 -11.1 3.4 -26.6 -2 z " />
        <path
            d="M 1152.6 957 c -5.7 -1.7 -10.6 -8.5 -10.6 -14.6 0 -4 3.9 -10.1 8.4 -13 4.5 -3 41 -16.8 47.2 -17.8 5.5 -1 9.4 2 9.4 7.1 0 5.2 -2.8 15.2 -5.6 20 -3.2 5.6 -8.4 8.5 -25.7 14.4 -14.2 4.9 -17.7 5.5 -23.1 3.9 z " />
        <path
            d="M 705 908.9 c -5 -0.8 -76.2 -26.4 -82.9 -29.8 -4.9 -2.6 -7.1 -6.2 -5.1 -8.6 4 -4.9 24.9 -11 37 -10.9 8.4 0.1 9.1 0.3 46 13.8 40.7 15 46.7 17.6 47.6 21.3 0.9 3.6 -2 6 -10.6 8.7 -16.7 5.3 -24.7 6.7 -32 5.5 z " />
        <path
            d="M 1273 906.4 c -22 -5.9 -26.3 -11.2 -14 -17.4 4 -2 73.5 -27.3 79.5 -28.9 6.4 -1.7 11.5 -1.3 24 1.9 14.6 3.8 20.3 6.4 21.1 9.6 1.3 5.2 -0.4 6.1 -47 23.2 -35.4 13 -37.5 13.6 -45.6 13.9 -6.6 0.2 -10.6 -0.3 -18 -2.3 z " />
        <path
            d="M 993.7 864.6 c -5.1 -1.9 -6.3 -3.1 -8.2 -7.9 -1.4 -3.7 -1.5 -15 -1.3 -104.7 0.3 -100.5 0.3 -100.5 2.8 -104.9 6.1 -10.8 19.9 -10.8 26 0 2.5 4.4 2.5 4.4 2.8 105.2 0.2 97.8 0.2 101 -1.7 105.2 -3 6.9 -12.3 10.1 -20.4 7.1 z " />
        <path
            d="M 537 848.6 c -42.2 -15.2 -43.5 -15.8 -44.6 -20.1 -1.1 -4.3 1.1 -7.1 8.5 -11.5 8.9 -5.1 14.1 -7 19.8 -7 4.8 0 56.6 18.2 62.9 22.1 6.8 4.1 5.3 9.4 -4.2 15.5 -14.9 9.5 -18.5 9.6 -42.4 1 z " />
        <path
            d="M 1427.6 851.6 c -17.5 -9.2 -20 -15.4 -8.4 -20.9 10.4 -4.9 53.4 -19.9 58.4 -20.4 6.3 -0.7 11.6 1 21.4 6.7 7.8 4.6 9.9 7.5 8.4 11.7 -1.3 3.9 -4.5 5.4 -33.1 16 -32.2 11.9 -36.1 12.4 -46.7 6.9 z " />
        <path
            d="M 817.3 841.2 c -2.9 -1 -6.9 -3.1 -9 -4.5 -6.4 -4.4 -48.9 -47.9 -51.1 -52.2 -1.1 -2.2 -3.2 -8 -4.7 -12.9 -4.3 -14.1 -9.2 -17.3 -18.8 -12.5 -2.3 1.2 -7.1 5.3 -10.7 9.1 -5 5.3 -7.4 7.1 -10.5 7.8 -2.2 0.5 -13.7 1 -25.5 1 -24.7 0 -30.4 -1 -38.6 -6.6 -6.5 -4.4 -9.9 -9.3 -26.9 -38.9 -19.7 -34.3 -21.4 -36.9 -27.5 -40.3 -3.3 -1.9 -14.4 -5.4 -31.8 -10.1 -14.8 -4 -28.9 -8.4 -31.7 -9.9 -2.7 -1.5 -9.2 -6.7 -14.4 -11.7 -17.3 -16.5 -20.5 -22.2 -17.7 -31.8 1.5 -4.9 3.1 -7.4 13.4 -19.7 5 -6.1 5.9 -8.9 4.1 -13.2 -1.6 -4 -3.2 -5 -60.4 -37.8 -42.1 -24.2 -48.8 -28.3 -54.6 -34 -5.1 -5 -7 -7.8 -8.4 -12 -2.4 -6.9 -2.4 -15 -0.1 -21.7 3.1 -9.2 14.1 -19.3 21.1 -19.3 1.4 0 4.2 0.9 6.3 1.9 2.1 1.1 34.6 32.9 73.2 71.6 38.2 38.3 71.7 71.5 74.3 73.6 3.9 3.1 5.7 3.9 9.1 3.9 2.3 0 5.3 -0.7 6.6 -1.6 1.4 -0.9 12.4 -11.5 24.5 -23.4 12.1 -12 23.5 -22.5 25.3 -23.4 5.3 -2.7 7.3 -1.8 10.7 4.7 2.9 5.8 14 17.3 26.8 28 5.9 5 7.4 7.9 6.2 12.4 -0.4 1.7 -8.8 11 -22.4 24.8 -12 12.1 -22.5 23.1 -23.4 24.5 -1 1.3 -1.7 4.3 -1.7 6.6 0 5.4 3.2 9.5 21.2 27.1 19.6 19 19.4 19 45.3 4.2 28.9 -16.6 30.5 -18 30.5 -27.3 0 -2.9 -3 -16.2 -7.5 -33 -8.7 -32.6 -9.2 -35.4 -7.2 -41.8 1.8 -5.7 30.3 -55.4 36.9 -64.1 2.6 -3.5 5.6 -8.8 6.8 -11.8 2.2 -5.6 12.4 -24 21.7 -39 5.9 -9.7 9.8 -12.6 15.6 -11.4 3.3 0.7 31.8 16.5 39.3 21.8 6.8 4.7 8.1 10.4 4.3 18 -5.3 10.5 -19.4 34.1 -22 36.6 -5.3 5.3 -9.8 4.8 -22.4 -2.5 -20.1 -11.5 -25.4 -13.3 -29 -9.7 -2.6 2.5 -1.6 8.3 6.4 38.3 3.9 14.6 7.3 28.3 7.7 30.5 0.9 5.9 -1 11.6 -7.7 23.6 -7.4 13.2 -8.5 16.6 -6.5 21.3 3.6 8.6 32.9 23.1 52.7 26.1 6.1 0.9 10.9 -1.3 13.7 -6.3 1.1 -2 4.6 -13.1 7.7 -24.7 7.7 -28.8 7.9 -29.2 21 -38.2 12.3 -8.6 12.9 -11.5 4.5 -20.8 -6.5 -7.1 -6.9 -9.7 -3.6 -22.7 5 -19.8 9.6 -35 11.6 -37.8 2.5 -3.5 6.1 -4.4 10.8 -2.9 3.6 1.2 31.3 16.9 38.9 22.1 5.2 3.5 7.3 7.3 7.3 13.1 0 5.5 -22.2 88.7 -25.3 94.7 -1.3 2.5 -4.4 6 -7 8 -2.6 1.9 -20.7 12.7 -40.3 24 -19.6 11.3 -37.7 22.3 -40.2 24.5 -7.2 6.5 -7.1 7.8 3.8 48.5 5 18.9 10 36.1 11.1 38.2 2.2 4.2 6.3 6.8 11 6.8 1.7 0 12.4 -2.5 23.8 -5.5 11.3 -3 23.5 -5.9 27.1 -6.4 8.8 -1.4 11.4 -3.5 11.8 -9.4 0.3 -3.7 -1.8 -10.3 -11.7 -37.6 -6.6 -18.2 -12.3 -35 -12.6 -37.5 -0.9 -5.9 0.1 -9.9 3.2 -13 3.6 -3.7 7.2 -3.3 13 1.2 2.6 2.1 6.4 4.7 8.3 5.9 5 3.1 8.6 7.1 10.9 12.3 3.5 8 40.1 109.3 41.1 113.6 0.6 2.8 0.6 5.2 0 6.9 -1.8 4.6 -6.7 3.5 -22.5 -5.2 -19.9 -11 -17.9 -11 -61.6 0.7 -38.2 10.3 -44.9 11.3 -53.6 8.2 z " />
        <path
            d="M 1164.5 842.4 c -1.1 -0.3 -17.2 -4.6 -35.9 -9.6 -43.2 -11.5 -41.3 -11.5 -61.1 -0.5 -15.8 8.7 -20.7 9.8 -22.5 5.2 -0.6 -1.7 -0.6 -4.1 0 -6.9 1 -4.3 37.6 -105.6 41.1 -113.6 2.3 -5.2 5.9 -9.2 10.9 -12.3 1.9 -1.2 5.7 -3.8 8.3 -5.9 5.8 -4.5 9.4 -4.9 13 -1.2 3.1 3.1 4.1 7.1 3.2 13 -0.3 2.5 -6 19.3 -12.6 37.5 -9.9 27.3 -12 33.9 -11.7 37.6 0.4 5.9 3 8 11.8 9.4 3.6 0.5 15.8 3.4 27.1 6.4 11.4 3 22.1 5.5 23.8 5.5 4.7 0 8.8 -2.6 11 -6.8 1.1 -2.1 6.1 -19.3 11.1 -38.2 10.9 -40.6 11 -41.8 3.9 -48.4 -2.5 -2.3 -20.1 -13.1 -40.2 -24.6 -19.7 -11.3 -37.9 -22.1 -40.4 -24 -2.6 -2 -5.7 -5.5 -7 -8 -3.1 -6 -25.3 -89.2 -25.3 -94.7 0 -8.9 1.6 -10.4 27.5 -25.2 18.9 -10.9 21.9 -12 26.2 -9.8 3.9 2.1 5.3 5.2 10.3 23.2 8.5 30.9 8.6 31.5 0.9 40.2 -2.7 3.1 -5.2 6.8 -5.6 8.1 -0.8 3.3 2 6.8 10.2 12.5 13.1 9 13.3 9.4 21 38.2 6.2 23 8.2 27.7 13.1 30 4.3 2 5.5 1.9 16.6 -1 13.1 -3.4 18.9 -5.6 29.3 -11.6 10.9 -6.2 14.2 -9.2 15.7 -14 1.2 -4.1 0 -7 -10.4 -26.3 -6.1 -11.2 -6 -13.6 3.1 -46.9 8.4 -31.2 9.2 -35.8 6.6 -38.7 -3.5 -3.9 -7.6 -2.6 -28 8.9 -11.7 6.6 -15.4 7.7 -19.9 5.6 -4 -1.9 -5.3 -3.6 -14.8 -20 -14.8 -25.5 -15.4 -27.9 -9 -34.5 4.1 -4.3 36.8 -23.4 41.9 -24.5 5.1 -1 9.6 1.7 14.1 8.8 7.4 11.6 20.3 34.6 22.8 40.6 1.3 3.4 4.6 9.1 7.3 12.8 8.1 11.2 35.8 59.9 37.1 65.4 1.5 6.2 1.4 6.5 -7.6 40.5 -4.1 15.8 -7.4 30.2 -7.4 32.8 0 5.7 1.9 9.7 6.2 12.9 7.1 5.3 42 24.6 45.7 25.2 6.2 1 10.2 -1.4 24.3 -15.2 17.6 -17.3 20.8 -21.3 20.8 -26.7 0 -2.3 -0.7 -5.3 -1.7 -6.6 -0.9 -1.4 -11.4 -12.4 -23.4 -24.5 -13.6 -13.8 -22 -23.1 -22.4 -24.8 -1.2 -4.5 0.3 -7.4 6.2 -12.4 12.9 -10.8 24.2 -22.6 27 -28.2 3.2 -6.3 5.2 -7.2 10.5 -4.5 1.8 0.9 13.2 11.4 25.3 23.4 12.1 11.9 23.1 22.5 24.5 23.4 1.3 0.9 4.3 1.6 6.6 1.6 3.4 0 5.2 -0.8 9.1 -3.9 2.6 -2.1 36.1 -35.3 74.3 -73.6 38.6 -38.7 71.1 -70.5 73.2 -71.6 2.1 -1 4.9 -1.9 6.3 -1.9 7 0 18 10.1 21.1 19.3 2.3 6.7 2.3 14.8 -0.1 21.7 -1.4 4.2 -3.3 7 -8.4 12 -5.9 5.7 -12.7 10 -58 36 -28.3 16.2 -52.7 30.8 -54.2 32.3 -5.9 5.8 -4.9 9.9 4.9 21.1 10.2 11.4 13 20.4 8.8 28.6 -2.9 5.6 -25.3 27.3 -31.3 30.4 -2.9 1.4 -17.1 5.8 -31.5 9.7 -29 7.8 -34.5 10.2 -39.4 17 -1.8 2.4 -10 16.3 -18.4 30.9 -18.7 32.3 -21.8 37 -28.4 41.4 -8.2 5.6 -13.9 6.6 -38.6 6.6 -11.8 0 -23.3 -0.5 -25.5 -1 -3.1 -0.7 -5.5 -2.5 -10.5 -7.8 -7 -7.4 -13 -11.2 -18 -11.2 -5.1 0 -8.3 4.1 -11.8 15.5 -1.7 5.5 -4.5 12 -6.1 14.5 -1.6 2.5 -13.3 14.7 -25.8 27.2 -26.1 25.9 -29 27.9 -41.7 28.4 -3.9 0.2 -8 0 -9.1 -0.2 z " />
        <path
            d="M 462.5 821.3 c -3.8 -1 -42.3 -15.1 -45.4 -16.7 -7.1 -3.7 -7.6 -9.3 -1.3 -16.6 5.3 -6.3 11.7 -10 16.9 -10 4 0 35.7 10.5 47.7 15.9 9.2 4 11 9.5 5.7 16.7 -6.9 9.5 -14.5 12.9 -23.6 10.7 z " />
        <path
            d="M 1524.5 820.2 c -6.7 -3.3 -13.5 -11.6 -13.5 -16.7 0 -3.8 2.9 -7.2 8.4 -9.5 11.3 -5 44 -16 47.3 -16 5.3 0 11.6 3.4 16.7 9.1 7.3 8.2 7 13.6 -1.2 17.8 -7.5 3.8 -43.9 16.3 -48.7 16.7 -3.6 0.4 -6.1 -0.1 -9 -1.4 z " />
        <path
            d="M 317 768.6 c -8 -2.9 -30.9 -11.3 -51 -18.6 -20.1 -7.3 -37.6 -13.8 -39 -14.5 -1.4 -0.7 -3.7 -2.6 -5.3 -4.2 -5.2 -5.6 -6.1 -19.9 -1.6 -25.7 3.4 -4.3 8.2 -3.6 30.7 4.5 21.2 7.7 23.1 8.5 30.7 13.5 4 2.6 6.6 3.5 13 4.3 7.5 0.9 37.6 11 46 15.3 5.8 3.1 8 6.4 8 12.2 -0.1 6.6 -2.9 13.9 -6.2 16.6 -4.1 3.2 -9.3 2.5 -25.3 -3.4 z " />
        <path
            d="M 1657.7 772 c -3.3 -2.7 -6.1 -10 -6.2 -16.6 0 -4.2 0.5 -5.7 2.5 -7.9 3.4 -3.7 5.5 -4.6 25.7 -12.1 12.3 -4.5 20.1 -6.8 25.7 -7.5 4.5 -0.6 9.3 -1.8 10.7 -2.7 1.5 -0.9 4.8 -3 7.3 -4.5 2.5 -1.6 13.9 -6.2 25.2 -10.3 23.6 -8.6 28 -9.1 31.8 -4.1 1.7 2.4 2.1 4.3 2.1 11 0 9.7 -2.1 14 -8.2 17.4 -7.3 4.1 -106 39.3 -110.1 39.3 -2.4 0 -4.9 -0.8 -6.5 -2 z " />
        <path
            d="M 995.5 553.5 c -5.3 -1.8 -9.2 -6.6 -10.5 -12.9 -0.8 -3.6 -1 -33.2 -0.8 -97.1 0.3 -92 0.3 -92 2.8 -96.4 6.1 -10.8 19.9 -10.8 26 0 2.5 4.4 2.5 4.4 2.8 96.9 0.2 64.7 -0.1 93.8 -0.8 96.9 -2.6 10.3 -10.8 15.6 -19.5 12.6 z " />
        <path
            d="M 699.3 502.3 c -3.9 -5.9 -10.5 -11.1 -22.2 -17.8 -16.1 -9.1 -19.1 -11.9 -19.1 -17.5 0 -4.2 0.3 -4.6 17.2 -21.6 19.1 -19.4 22.6 -21.7 29.7 -19.6 5.7 1.8 40.2 21.8 43.4 25.2 6.1 6.7 3.7 10.9 -20 34.1 -20.3 20 -25.2 22.9 -29 17.2 z " />
        <path
            d="M 1292.1 503.3 c -3.9 -1.9 -30.9 -27.7 -38.3 -36.6 -6.1 -7.4 -6.5 -11.4 -1.5 -16.1 3.8 -3.5 32.7 -20.5 40.5 -23.8 8.8 -3.7 10.7 -2.6 31.3 18 18.5 18.6 19.7 20.4 17.3 26.1 -1.4 3.2 -4.3 5.3 -22.4 16 -9.3 5.5 -12.3 7.9 -15.8 12.4 -4.7 6.1 -5.9 6.6 -11.1 4 z " />
        <path
            d="M 592 434.1 c -6 -1.9 -46 -24.7 -49.7 -28.4 -6.8 -6.8 -3.3 -10.9 21.7 -25.3 29.5 -17 31 -17.5 41 -12.8 9.4 4.3 42.1 23.7 45.2 26.7 3.5 3.5 3.6 6.6 0.3 10.6 -3 3.5 -43 26.8 -49.4 28.8 -4.9 1.4 -5.5 1.5 -9.1 0.4 z " />
        <path
            d="M 1399 433.8 c -5.3 -1.4 -43.8 -23.8 -48.2 -27.9 -4.7 -4.4 -4.9 -7.6 -1 -11.6 2.9 -2.8 37.9 -23.5 46.2 -27.2 9 -4.1 11.3 -3.3 40 13.3 18.5 10.7 25 15.8 25 19.6 0 1.1 -1.2 3.3 -2.7 5 -3.3 3.5 -42.1 26.2 -48.8 28.4 -5.1 1.8 -5.6 1.8 -10.5 0.4 z " />
        <path
            d="M 776.7 427 c -2.6 -1.6 -5 -6.9 -13.2 -29.5 -10.1 -27.6 -10 -30.9 1.5 -42.7 7.5 -7.8 11.9 -7.6 16.8 0.4 2.1 3.4 15.2 39.1 17.2 46.6 1.4 5.5 0.1 10.6 -4.3 16 -6.7 8.3 -13.6 11.8 -18 9.2 z " />
        <path
            d="M 1213 425.1 c -5.4 -3.6 -10.7 -10.3 -12 -15.2 -1.3 -4.9 -0.8 -7 8.2 -31.9 8.2 -22.6 8.9 -24.1 12.4 -26.9 4.5 -3.5 7.2 -2.8 13.7 3.9 11.2 11.6 11.3 14.9 1.2 42.5 -4.1 11.3 -8.4 22.4 -9.5 24.5 -3.4 6.7 -7.3 7.6 -14 3.1 z " />
        <path
            d="M 470.4 364.6 c -6.9 -3.2 -90.1 -51.3 -94.2 -54.4 -3.9 -3 -5.6 -5.9 -8.4 -15 -1.3 -4.3 -8 -17.1 -18.8 -35.7 -20.7 -35.9 -23.2 -40.7 -22.8 -44.8 0.3 -2.7 0.8 -3.3 3.2 -3.5 1.5 -0.2 4.2 0.2 6 0.9 1.7 0.7 21.6 11.8 44.1 24.7 41 23.5 41 23.5 50 32.7 9.1 9.4 12.7 11.5 19.6 11.5 5.6 0 12.7 3.3 38.4 18.1 26.3 15.1 34.5 20.9 34.5 24.3 0 3.4 -4.9 6.3 -16.3 9.6 -18.4 5.2 -20.8 6.1 -23.9 8.9 -3.6 3.2 -3.9 7.2 -1.3 15 0.9 2.8 1.5 6.1 1.3 7.3 -0.4 3.3 -5.1 3.4 -11.4 0.4 z " />
        <path
            d="M 1518.7 366.3 c -1.2 -1.1 -0.8 -4.2 1.4 -11.3 1.8 -6 1.9 -7.3 0.7 -9.7 -2.1 -4.4 -6.7 -6.8 -21 -10.7 -15.7 -4.4 -19.2 -5.9 -20.5 -8.9 -1.4 -3 -0.1 -6 3.9 -9 4 -3 53 -31.4 57.5 -33.3 1.8 -0.8 6.4 -1.8 10.3 -2.4 9.3 -1.3 11.3 -2.5 18.9 -11 7.5 -8.4 4.9 -6.7 48.8 -32.1 42.2 -24.4 47.5 -27.1 51.6 -26.7 2.8 0.3 3.2 0.7 3.5 3.5 0.4 4 -2.2 9.1 -20.8 41.3 -17.7 30.6 -19.4 34 -21.7 42.1 -1.2 4.3 -2.8 7.4 -5.3 9.9 -3.2 3.4 -72.6 44.2 -92.8 54.7 -7.6 4 -12.9 5.3 -14.5 3.6 z " />
        <path
            d="M 747.8 344.5 c -3.9 -2.2 -5.9 -6.2 -13.2 -26.4 -8.4 -23.2 -8.7 -24.8 -4.7 -32.6 4.2 -8.2 4.1 -9 -1.9 -11 -9.2 -3.1 -12.6 -10.8 -8 -18.3 2.7 -4.4 9.6 -7.5 14.6 -6.6 7.6 1.4 12.4 8.4 12.4 18 0 3.1 0.7 4.9 3.4 8 1.8 2.1 4.3 5.9 5.6 8.3 3 5.9 12.9 33.2 14.6 40.1 2.4 9.9 -1 16.5 -10.2 19.9 -6.4 2.4 -8.9 2.6 -12.6 0.6 z " />
        <path
            d="M 1240.8 344.5 c -7.6 -2.8 -10.4 -5.6 -11.9 -12.3 -0.9 -4.3 0.6 -10.3 7.4 -28.8 6.4 -17.6 8.8 -22.5 13.3 -27.8 2.7 -3.1 3.4 -4.9 3.4 -8 0 -9.6 4.8 -16.6 12.4 -18 5 -0.9 11.9 2.2 14.6 6.6 4.6 7.5 1.2 15.2 -8 18.3 -6 2 -6.1 2.8 -1.9 11 2.5 4.8 3 6.8 2.5 10.1 -0.6 5 -13 39.6 -15.8 44.2 -3.5 5.8 -8.8 7.3 -16 4.7 z " />
    </g>
</svg>